<svg xmlns="http://www.w3.org/2000/svg" version="1.1" xmlns:xlink="http://www.w3.org/1999/xlink" xmlns:svgjs="http://svgjs.dev/svgjs" width="1500" height="1500" viewBox="0 0 1500 1500"><rect width="1500" height="1500" fill="#000000"></rect><g transform="matrix(0.6666666666666666,0,0,0.6666666666666666,249.39393939393938,589.2637486985931)"><svg viewBox="0 0 396 127" data-background-color="#ffffff" preserveAspectRatio="xMidYMid meet" height="481" width="1500" xmlns="http://www.w3.org/2000/svg" xmlns:xlink="http://www.w3.org/1999/xlink"><g id="tight-bounds" transform="matrix(1,0,0,1,0.2400000000000091,0.1595756193721911)"><svg viewBox="0 0 395.52 126.6807780401742" height="126.6807780401742" width="395.52"><g><svg viewBox="0 0 681.315164872791 218.2178781772217" height="126.6807780401742" width="395.52"><g transform="matrix(1,0,0,1,285.795164872791,37.54587603310189)"><svg viewBox="0 0 395.52 143.12612611101792" height="143.12612611101792" width="395.52"><g id="textblocktransform"><svg viewBox="0 0 395.52 143.12612611101792" height="143.12612611101792" width="395.52" id="textblock"><g><svg viewBox="0 0 395.52 143.12612611101792" height="143.12612611101792" width="395.52"><g transform="matrix(1,0,0,1,0,0)"><svg width="395.52" viewBox="1.9 -35.18 109.16999999999999 39.511944455543" height="143.12612611101792" data-palette-color="#ffffff"><path d="M9.64 0.29L9.64 0.29Q5.62 0.29 3.89-0.98 2.17-2.25 2.05-5.13L2.05-5.13Q1.95-6.93 1.92-9.38 1.88-11.82 1.92-14.28 1.95-16.75 2.05-18.58L2.05-18.58Q2.17-21.53 3.94-22.8 5.71-24.07 9.64-24.07L9.64-24.07Q13.35-24.07 15.01-22.83 16.67-21.58 16.85-18.73L16.85-18.73Q16.89-17.87 16.94-15.75 16.99-13.62 16.8-11.23L16.8-11.23 5.1-11.23Q5.1-9.69 5.13-8.11 5.15-6.52 5.22-4.81L5.22-4.81Q5.25-3.47 6.25-2.95 7.25-2.44 9.55-2.44L9.55-2.44Q11.82-2.44 12.74-2.95 13.67-3.47 13.77-4.81L13.77-4.81Q13.84-6.15 13.77-8.47L13.77-8.47 16.8-8.47Q16.92-7.76 16.91-6.82 16.89-5.88 16.85-5.13L16.85-5.13Q16.67-2.25 15.1-0.98 13.53 0.29 9.64 0.29ZM5.1-13.82L5.1-13.82 13.82-13.82Q13.87-15.48 13.87-16.99 13.87-18.51 13.77-19.07L13.77-19.07Q13.67-20.29 12.72-20.81 11.77-21.34 9.64-21.34L9.64-21.34Q7.28-21.34 6.26-20.81 5.25-20.29 5.22-19.07L5.22-19.07Q5.15-17.65 5.11-16.36 5.08-15.06 5.1-13.82ZM29.44 0L29.44 0 20.9 0 20.9-34.86 29.56-34.86Q34.1-34.86 36.14-33.4 38.18-31.93 38.25-28.54L38.25-28.54Q38.38-24.58 38.41-21.02 38.45-17.46 38.41-13.89 38.38-10.33 38.25-6.35L38.25-6.35Q38.18-2.95 36.13-1.48 34.08 0 29.44 0ZM29.56-31.74L24.29-31.74 24.29-3.13 29.44-3.13Q32.3-3.13 33.57-3.83 34.84-4.54 34.86-5.98L34.86-5.98Q35.23-17.43 34.86-28.93L34.86-28.93Q34.84-30.37 33.58-31.05 32.32-31.74 29.56-31.74L29.56-31.74ZM48.16 0.27L48.16 0.27Q45.19 0.27 43.76-0.9 42.33-2.08 42.08-4.57L42.08-4.57Q42.06-5.05 42.02-5.54 41.99-6.03 42.04-6.49L42.04-6.49Q42.21-8.67 43.4-10.14 44.6-11.62 47.94-12.84L47.94-12.84Q49.31-13.33 50.83-13.72 52.34-14.11 53.83-14.48L53.83-14.48 53.83-18.99Q53.83-20.19 52.92-20.76 52.02-21.34 49.78-21.34L49.78-21.34Q47.82-21.34 46.81-20.85 45.8-20.36 45.7-19.07L45.7-19.07Q45.65-18.46 45.65-17.32 45.65-16.19 45.7-15.41L45.7-15.41 42.65-15.41Q42.6-16.02 42.55-16.99 42.5-17.97 42.57-18.73L42.57-18.73Q42.7-21.56 44.42-22.81 46.14-24.07 49.9-24.07L49.9-24.07Q53.83-24.07 55.35-22.71 56.88-21.34 56.9-18.21L56.9-18.21 56.9 0 53.83 0 53.83-2.25 53.14-2.25Q52.53-1.03 51.4-0.38 50.26 0.27 48.16 0.27ZM48.95-2.37L48.95-2.37Q52.46-2.37 53.8-4.47L53.8-4.47 53.8-11.87Q52.63-11.62 51.4-11.29 50.17-10.96 48.51-10.4L48.51-10.4Q46.53-9.67 45.87-8.72 45.21-7.76 45.11-6.49L45.11-6.49Q45.14-6.13 45.15-5.7 45.16-5.27 45.21-4.81L45.21-4.81Q45.38-3.64 46.38-3 47.38-2.37 48.95-2.37ZM68.89 0.29L68.89 0.29Q65.08 0.29 63.75-0.98 62.42-2.25 62.42-5.13L62.42-5.13 62.42-21.02 60.08-21.02 60.08-23.75 62.49-23.75 62.49-30.49 65.59-30.49 65.59-23.75 70.96-23.75 70.96-21.02 65.57-21.02 65.57-4.79Q65.57-3.44 66.13-2.93 66.69-2.42 68.96-2.42L68.96-2.42Q69.89-2.42 70.39-2.45 70.89-2.49 71.55-2.51L71.55-2.51 71.55 0.1Q70.96 0.2 70.28 0.24 69.6 0.29 68.89 0.29ZM79.6 0.27L79.6 0.27Q76.63 0.27 75.2-0.9 73.77-2.08 73.53-4.57L73.53-4.57Q73.5-5.05 73.46-5.54 73.43-6.03 73.48-6.49L73.48-6.49Q73.65-8.67 74.84-10.14 76.04-11.62 79.38-12.84L79.38-12.84Q80.75-13.33 82.27-13.72 83.78-14.11 85.27-14.48L85.27-14.48 85.27-18.99Q85.27-20.19 84.37-20.76 83.46-21.34 81.22-21.34L81.22-21.34Q79.26-21.34 78.25-20.85 77.24-20.36 77.14-19.07L77.14-19.07Q77.09-18.46 77.09-17.32 77.09-16.19 77.14-15.41L77.14-15.41 74.09-15.41Q74.04-16.02 73.99-16.99 73.94-17.97 74.01-18.73L74.01-18.73Q74.14-21.56 75.86-22.81 77.58-24.07 81.34-24.07L81.34-24.07Q85.27-24.07 86.79-22.71 88.32-21.34 88.34-18.21L88.34-18.21 88.34 0 85.27 0 85.27-2.25 84.58-2.25Q83.97-1.03 82.84-0.38 81.7 0.27 79.6 0.27ZM80.39-2.37L80.39-2.37Q83.9-2.37 85.24-4.47L85.24-4.47 85.24-11.87Q84.07-11.62 82.84-11.29 81.61-10.96 79.95-10.4L79.95-10.4Q77.97-9.67 77.31-8.72 76.65-7.76 76.55-6.49L76.55-6.49Q76.58-6.13 76.59-5.7 76.6-5.27 76.65-4.81L76.65-4.81Q76.82-3.64 77.82-3 78.82-2.37 80.39-2.37ZM109.75 1.46L109.75 1.46 109.75 4.3Q106.02 4.49 104.15 3.55 102.28 2.61 101.87 0.32L101.87 0.32Q97.01 0.32 94.95-1.12 92.88-2.56 92.76-5.86L92.76-5.86Q92.52-11.79 92.52-17.44 92.52-23.1 92.76-29.03L92.76-29.03Q92.88-32.32 94.93-33.75 96.98-35.18 101.84-35.18L101.84-35.18Q106.68-35.18 108.79-33.75 110.9-32.32 110.93-29.03L110.93-29.03Q111.07-23.07 111.07-17.43 111.07-11.79 110.93-5.86L110.93-5.86Q110.9-3.56 109.53-2.23 108.17-0.9 105.07-0.32L105.07-0.32Q105.36 0.73 106.47 1.15 107.58 1.56 109.75 1.46ZM101.84-2.61L101.84-2.61Q104.97-2.61 106.21-3.23 107.46-3.86 107.53-5.27L107.53-5.27Q107.87-11.38 107.81-17.53 107.75-23.68 107.53-29.59L107.53-29.59Q107.46-31.03 106.21-31.64 104.97-32.25 101.84-32.25L101.84-32.25Q98.77-32.25 97.5-31.64 96.23-31.03 96.15-29.59L96.15-29.59Q95.81-23.68 95.85-17.53 95.89-11.38 96.15-5.27L96.15-5.27Q96.23-3.86 97.5-3.23 98.77-2.61 101.84-2.61Z" opacity="1" transform="matrix(1,0,0,1,0,0)" fill="#ffffff" class="wordmark-text-0" data-fill-palette-color="primary" id="text-0"></path></svg></g></svg></g></svg></g></svg></g><g><svg viewBox="0 0 218.2178781772217 218.2178781772217" height="218.2178781772217" width="218.2178781772217"><g><svg></svg></g><g id="icon-0"><svg viewBox="0 0 218.2178781772217 218.2178781772217" height="218.2178781772217" width="218.2178781772217"><g><path d="M0 109.109c0-60.259 48.85-109.109 109.109-109.109 60.259 0 109.109 48.85 109.109 109.109 0 60.259-48.85 109.109-109.109 109.109-60.259 0-109.109-48.85-109.109-109.109zM109.109 205.311c53.131 0 96.202-43.071 96.202-96.202 0-53.131-43.071-96.202-96.202-96.202-53.131 0-96.202 43.071-96.202 96.202 0 53.131 43.071 96.202 96.202 96.202z" data-fill-palette-color="accent" fill="#ffffff" stroke="transparent"></path></g><g transform="matrix(1,0,0,1,54.33187466007173,58.89663002911666)"><svg viewBox="0 0 109.55412885707824 100.42461811898839" height="100.42461811898839" width="109.55412885707824"><g><svg xmlns="http://www.w3.org/2000/svg" xmlns:xlink="http://www.w3.org/1999/xlink" version="1.1" viewBox="0 4 96 88" x="0" y="0" height="100.42461811898839" width="109.55412885707824" class="icon-dxe-0" data-fill-palette-color="accent" id="dxe-0"><path d="M82 92H14C6.28 92 0 85.72 0 78V74C0 66.28 6.28 60 14 60H82C89.72 60 96 66.28 96 74V78C96 85.72 89.72 92 82 92M14 64C8.488 64 4 68.488 4 74V78C4 83.512 8.488 88 14 88H82C87.512 88 92 83.512 92 78V74C92 68.488 87.512 64 82 64z" fill="#ffffff" data-fill-palette-color="accent"></path><path d="M79 82C75.692 82 73 79.308 73 76S75.692 70 79 70 85 72.692 85 76 82.308 82 79 82M79 74C77.9 74 77 74.9 77 76S77.9 78 79 78 81 77.1 81 76 80.1 74 79 74" fill="#ffffff" data-fill-palette-color="accent"></path><path d="M3.656 69.944C3.568 69.944 3.48 69.936 3.388 69.928A2.007 2.007 0 0 1 1.672 67.676L8.452 17.344C9.476 9.736 16.036 4 23.712 4H72.256C79.952 4 86.512 9.752 87.52 17.376L94.148 67.412A2.006 2.006 0 0 1 92.424 69.66 2.01 2.01 0 0 1 90.18 67.936L83.564 17.9C82.812 12.256 77.96 7.996 72.26 7.996H23.712C18.032 7.996 13.176 12.244 12.416 17.872L5.636 68.204A1.996 1.996 0 0 1 3.656 69.944" fill="#ffffff" data-fill-palette-color="accent"></path></svg></g></svg></g></svg></g></svg></g></svg></g><defs></defs></svg><rect width="395.52" height="126.6807780401742" fill="none" stroke="none" visibility="hidden"></rect></g></svg></g></svg>